<svg xmlns="http://www.w3.org/2000/svg" viewBox="0 0 920 190" width="920" height="190" preserveAspectRatio="xMinYMax meet" style="width: 100%; height: 100%; transform: translate3d(0px, 0px, 0px);">
    <defs>
        <clipPath id="__lottie_element_147">
            <rect width="920" height="190" x="0" y="0"></rect>
        </clipPath>
    </defs>
    <g clip-path="url(#__lottie_element_147)">
        <g transform="matrix(1,0,0,1,461.1999816894531,175)" opacity="1" style="display: block;">
            <g opacity="1" transform="matrix(1,0,0,1,0,0)">
                <g opacity="1" transform="matrix(1,0,0,1,0,0)">
                    <path fill="rgb(23,15,79)" fill-opacity="1" d=" M-359.4930114746094,-52.45399856567383 C-359.4930114746094,-70.22699737548828 -372.0920104980469,-84.6240005493164 -390.7619934082031,-84.6240005493164 C-409.4320068359375,-84.6240005493164 -422.2560119628906,-70.0009994506836 -422.2560119628906,-52.45399856567383 C-422.2560119628906,-34.4630012512207 -409.4320068359375,-19.836999893188477 -390.7619934082031,-19.836999893188477 C-372.0920104980469,-19.836999893188477 -359.4930114746094,-34.4630012512207 -359.4930114746094,-52.45399856567383 M-323.49700927734375,-52.231998443603516 C-323.49700927734375,-14.885000228881836 -350.0429992675781,12.559000015258789 -384.9129943847656,12.559000015258789 C-401.78399658203125,12.559000015258789 -413.4830017089844,5.357999801635742 -421.8059997558594,-4.313000202178955 C-421.8059997558594,-4.313000202178955 -421.8059997558594,9.340999603271484 -421.8059997558594,9.340999603271484 C-421.8059997558594,9.340999603271484 -456,9.340999603271484 -456,9.340999603271484 C-456,9.340999603271484 -456,-171.5659942626953 -456,-171.5659942626953 C-456,-171.5659942626953 -420.6830139160156,-171.5659942626953 -420.6830139160156,-171.5659942626953 C-420.6830139160156,-171.5659942626953 -420.6830139160156,-101.7239990234375 -420.6830139160156,-101.7239990234375 C-412.3559875488281,-110.49500274658203 -400.8869934082031,-117.02300262451172 -384.9129943847656,-117.02300262451172 C-350.0429992675781,-117.02300262451172 -323.49700927734375,-89.34700012207031 -323.49700927734375,-52.231998443603516"></path>
                    <g opacity="1" transform="matrix(1,0,0,1,0,0)"></g>
                </g>
                <g opacity="1" transform="matrix(1,0,0,1,0,0)">
                    <path fill="rgb(23,15,79)" fill-opacity="1" d=" M-213.20199584960938,-52.56100082397461 C-213.20199584960938,-70.30500030517578 -226.9040069580078,-84.23200225830078 -244.64500427246094,-84.23200225830078 C-262.1629943847656,-84.23200225830078 -275.8659973144531,-70.30500030517578 -275.8659973144531,-52.56100082397461 C-275.8659973144531,-34.369998931884766 -262.1629943847656,-20.224000930786133 -244.64500427246094,-20.224000930786133 C-226.9040069580078,-20.224000930786133 -213.20199584960938,-34.369998931884766 -213.20199584960938,-52.56100082397461 M-310.89898681640625,-52.3390007019043 C-310.89898681640625,-88.0479965209961 -284.4010009765625,-117.0199966430664 -244.64500427246094,-117.0199966430664 C-204.66900634765625,-117.0199966430664 -177.9459991455078,-88.0479965209961 -177.9459991455078,-52.3390007019043 C-177.9459991455078,-16.62700080871582 -204.66900634765625,12.567000389099121 -244.64500427246094,12.567000389099121 C-284.4010009765625,12.567000389099121 -310.89898681640625,-16.62700080871582 -310.89898681640625,-52.3390007019043"></path>
                    <g opacity="1" transform="matrix(1,0,0,1,0,0)"></g>
                </g>
                <g opacity="1" transform="matrix(1,0,0,1,0,0)">
                    <path fill="rgb(23,15,79)" fill-opacity="1" d=" M-161.32200622558594,-171.56500244140625 C-161.32200622558594,-171.56500244140625 -126.00199890136719,-171.56500244140625 -126.00199890136719,-171.56500244140625 C-126.00199890136719,-171.56500244140625 -126.00199890136719,9.342000007629395 -126.00199890136719,9.342000007629395 C-126.00199890136719,9.342000007629395 -161.32200622558594,9.342000007629395 -161.32200622558594,9.342000007629395 C-161.32200622558594,9.342000007629395 -161.32200622558594,-171.56500244140625 -161.32200622558594,-171.56500244140625z"></path>
                </g>
                <g opacity="1" transform="matrix(1,0,0,1,0,0)">
                    <path fill="rgb(23,15,79)" fill-opacity="1" d=" M-66.35900115966797,-70.41100311279297 C-66.35900115966797,-70.41100311279297 -66.35900115966797,-40.53499984741211 -66.35900115966797,-40.53499984741211 C-66.35900115966797,-26.358999252319336 -60.959999084472656,-19.613000869750977 -49.9379997253418,-19.613000869750977 C-42.0620002746582,-19.613000869750977 -35.762001037597656,-22.534000396728516 -29.69099998474121,-25.687000274658203 C-29.69099998474121,-25.687000274658203 -19.791000366210938,2.438999891281128 -19.791000366210938,2.438999891281128 C-29.69099998474121,8.734999656677246 -44.31100082397461,12.557999610900879 -57.584999084472656,12.557999610900879 C-86.37999725341797,12.557999610900879 -101.67900085449219,-4.0920000076293945 -101.67900085449219,-37.15700149536133 C-101.67900085449219,-37.15700149536133 -101.89800262451172,-70.41100311279297 -101.89800262451172,-70.41100311279297 C-101.89800262451172,-70.41100311279297 -66.35900115966797,-70.41100311279297 -66.35900115966797,-70.41100311279297z"></path>
                </g>
                <g opacity="1" transform="matrix(1,0,0,1,0,0)">
                    <path fill="rgb(23,15,79)" fill-opacity="1" d=" M-66.35900115966797,-107.71399688720703 C-66.35900115966797,-107.71399688720703 -101.89800262451172,-107.71399688720703 -101.89800262451172,-107.71399688720703 C-101.89800262451172,-107.71399688720703 -101.89800262451172,-171.5679931640625 -101.89800262451172,-171.5679931640625 C-101.89800262451172,-171.5679931640625 -66.35900115966797,-171.5679931640625 -66.35900115966797,-171.5679931640625 C-66.35900115966797,-171.5679931640625 -66.35900115966797,-107.71399688720703 -66.35900115966797,-107.71399688720703z"></path>
                </g>
                <g opacity="1" transform="matrix(1,0,0,1,0,0)">
                    <path fill="rgb(23,15,79)" fill-opacity="1" d=" M82.46199798583984,2.509999990463257 C73.94200134277344,9.279000282287598 63.67599868774414,12.557999610900879 51.439998626708984,12.557999610900879 C28.06999969482422,12.557999610900879 16.27199935913086,-2.7339999675750732 16.27199935913086,-28.288999557495117 C16.27199935913086,-28.288999557495117 16.27199935913086,-96.13300323486328 16.27199935913086,-96.13300323486328 C16.27199935913086,-96.13300323486328 -4.4770002365112305,-96.13300323486328 -4.4770002365112305,-96.13300323486328 C-4.4770002365112305,-96.13300323486328 -4.4770002365112305,-107.71299743652344 -4.4770002365112305,-107.71299743652344 C-4.4770002365112305,-107.71299743652344 16.490999221801758,-107.71299743652344 16.490999221801758,-107.71299743652344 C16.490999221801758,-107.71299743652344 16.490999221801758,-149.08700561523438 16.490999221801758,-149.08700561523438 C16.490999221801758,-149.08700561523438 29.378999710083008,-149.08700561523438 29.378999710083008,-149.08700561523438 C29.378999710083008,-149.08700561523438 29.378999710083008,-107.71299743652344 29.378999710083008,-107.71299743652344 C29.378999710083008,-107.71299743652344 77.43599700927734,-107.71299743652344 77.43599700927734,-107.71299743652344 C77.43599700927734,-107.71299743652344 77.43599700927734,-96.13300323486328 77.43599700927734,-96.13300323486328 C77.43599700927734,-96.13300323486328 29.378999710083008,-96.13300323486328 29.378999710083008,-96.13300323486328 C29.378999710083008,-96.13300323486328 29.378999710083008,-27.854999542236328 29.378999710083008,-27.854999542236328 C29.378999710083008,-8.847000122070312 37.02399826049805,0.5440000295639038 52.534000396728516,0.5440000295639038 C61.487998962402344,0.5440000295639038 69.56999969482422,-2.078000068664551 77.00199890136719,-7.538000106811523 C77.00199890136719,-7.538000106811523 82.46199798583984,2.509999990463257 82.46199798583984,2.509999990463257z"></path>
                </g>
                <g opacity="1" transform="matrix(1,0,0,1,0,0)">
                    <path fill="rgb(23,15,79)" fill-opacity="1" d=" M201.07699584960938,-43.36399841308594 C201.07699584960938,-43.36399841308594 102.7750015258789,-43.36399841308594 102.7750015258789,-43.36399841308594 C104.74099731445312,-17.367000579833984 121.56099700927734,0.32499998807907104 150.17599487304688,0.32499998807907104 C165.2519989013672,0.32499998807907104 182.5070037841797,-5.135000228881836 192.99200439453125,-13.651000022888184 C192.99200439453125,-13.651000022888184 199.10800170898438,-3.6040000915527344 199.10800170898438,-3.6040000915527344 C187.7480010986328,5.349999904632568 169.1840057373047,12.557000160217285 149.9600067138672,12.557000160217285 C106.92500305175781,12.557000160217285 89.23300170898438,-18.243000030517578 89.23300170898438,-48.823001861572266 C89.23300170898438,-66.51899719238281 94.4739990234375,-80.93499755859375 105.1780014038086,-92.51100158691406 C115.88200378417969,-104.09100341796875 129.86199951171875,-109.76899719238281 147.33799743652344,-109.76899719238281 C163.06500244140625,-109.76899719238281 175.9530029296875,-104.74700164794922 186.22300720214844,-94.47699737548828 C196.48599243164062,-84.42900085449219 201.72999572753906,-70.88500213623047 201.72999572753906,-53.630001068115234 C201.72999572753906,-52.0989990234375 201.51199340820312,-48.608001708984375 201.07699584960938,-43.36399841308594 M102.7750015258789,-55.37699890136719 C102.7750015258789,-55.37699890136719 188.18600463867188,-55.37699890136719 188.18600463867188,-55.37699890136719 C187.9669952392578,-81.37300109863281 171.14700317382812,-97.75599670410156 147.33799743652344,-97.75599670410156 C122.8740005493164,-97.75599670410156 105.39399719238281,-80.93499755859375 102.7750015258789,-55.37699890136719"></path>
                    <g opacity="1" transform="matrix(1,0,0,1,0,0)"></g>
                </g>
                <g opacity="1" transform="matrix(1,0,0,1,0,0)">
                    <path fill="rgb(23,15,79)" fill-opacity="1" d=" M237.99400329589844,-4.478000164031982 C226.8520050048828,-16.05699920654297 221.17100524902344,-30.69300079345703 221.17100524902344,-48.3849983215332 C221.17100524902344,-66.29900360107422 226.8520050048828,-80.93800354003906 238.2100067138672,-92.51100158691406 C249.78900146484375,-104.08999633789062 264.42401123046875,-109.77200317382812 282.1199951171875,-109.77200317382812 C305.0559997558594,-109.77200317382812 325.3699951171875,-98.19200134277344 334.3240051269531,-79.62200164794922 C334.3240051269531,-79.62200164794922 323.62298583984375,-73.50900268554688 323.62298583984375,-73.50900268554688 C315.760009765625,-88.36000061035156 299.81500244140625,-97.75499725341797 282.1199951171875,-97.75499725341797 C268.3590087890625,-97.75499725341797 256.7799987792969,-93.16699981689453 247.822998046875,-83.77200317382812 C238.86599731445312,-74.5999984741211 234.281005859375,-62.80500030517578 234.281005859375,-48.3849983215332 C234.281005859375,-34.1870002746582 238.64700317382812,-22.392000198364258 247.38499450683594,-13.215999603271484 C256.1239929199219,-4.039999961853027 267.2650146484375,0.5440000295639038 280.80999755859375,0.5440000295639038 C298.50201416015625,0.5440000295639038 315.3219909667969,-9.503000259399414 322.9670104980469,-23.704999923706055 C322.9670104980469,-23.704999923706055 333.6709899902344,-17.148000717163086 333.6709899902344,-17.148000717163086 C329.0830078125,-8.190999984741211 321.87298583984375,-0.984000027179718 312.2659912109375,4.47599983215332 C302.65301513671875,9.935999870300293 292.1669921875,12.557999610900879 280.80999755859375,12.557999610900879 C263.54901123046875,12.557999610900879 249.13600158691406,6.879000186920166 237.99400329589844,-4.478000164031982"></path>
                </g>
                <g opacity="1" transform="matrix(1,0,0,1,0,0)">
                    <path fill="rgb(23,15,79)" fill-opacity="1" d=" M356.6080017089844,9.34000015258789 C356.6080017089844,9.34000015258789 356.6080017089844,-155.58399963378906 356.6080017089844,-155.58399963378906 C356.6080017089844,-155.58399963378906 369.27801513671875,-155.58399963378906 369.27801513671875,-155.58399963378906 C369.27801513671875,-155.58399963378906 369.27801513671875,-87.86499786376953 369.27801513671875,-87.86499786376953 C376.2659912109375,-102.50399780273438 391.12298583984375,-110.58300018310547 409.68701171875,-110.58300018310547 C423.0169982910156,-110.58300018310547 433.9360046386719,-106.21700286865234 442.67498779296875,-97.6969985961914 C451.6289978027344,-89.1780014038086 456.0010070800781,-76.94200134277344 456.0010070800781,-61.215999603271484 C456.0010070800781,-61.215999603271484 456.0010070800781,9.34000015258789 456.0010070800781,9.34000015258789 C456.0010070800781,9.34000015258789 442.8900146484375,9.34000015258789 442.8900146484375,9.34000015258789 C442.8900146484375,9.34000015258789 442.8900146484375,-59.03200149536133 442.8900146484375,-59.03200149536133 C442.8900146484375,-83.49600219726562 429.7860107421875,-98.35399627685547 408.15899658203125,-98.35399627685547 C397.89300537109375,-98.35399627685547 388.9389953613281,-94.85600280761719 381.2909851074219,-87.86499786376953 C373.6470031738281,-80.87699890136719 369.7149963378906,-70.38899993896484 369.7149963378906,-56.41299819946289 C369.7149963378906,-56.41299819946289 369.7149963378906,9.34000015258789 369.7149963378906,9.34000015258789 C369.7149963378906,9.34000015258789 356.6080017089844,9.34000015258789 356.6080017089844,9.34000015258789z"></path>
                </g>
            </g>
        </g>
        <g transform="matrix(1,0,0,1,461.1999816894531,175)" opacity="1" style="display: block;">
            <g opacity="1" transform="matrix(1,0,0,1,0,0)">
                <path fill="rgb(255,255,255)" fill-opacity="1" d=" M-29.054000854492188,-70.41200256347656 C-29.054000854492188,-70.41200256347656 -66.35600280761719,-70.41200256347656 -66.35600280761719,-70.41200256347656 C-66.35600280761719,-70.41200256347656 -66.35600280761719,-107.71399688720703 -66.35600280761719,-107.71399688720703 C-66.35600280761719,-107.71399688720703 -29.054000854492188,-107.71399688720703 -29.054000854492188,-107.71399688720703 C-29.054000854492188,-107.71399688720703 -29.054000854492188,-70.41200256347656 -29.054000854492188,-70.41200256347656z"></path>
            </g>
        </g>
    </g>
</svg>